# Blender v2.64 (sub 0) OBJ File: ''
# www.blender.org
mtllib terrain_hill3.mtl
o Plane
v 1.000000 0.000000 1.000000
v -1.000000 0.000000 1.000000
v 1.000000 0.000000 -1.000000
v -1.000000 0.000000 -1.000000
v 0.000000 0.000000 1.000000
v 0.000000 0.000000 -1.000000
v -1.000000 0.000000 0.000000
v 1.000000 0.000000 0.000000
v 0.000000 0.000000 0.000000
vt 0.500000 0.500000
vt 0.000000 0.500000
vt 0.500000 0.000000
vt 1.000000 0.000000
vt 1.000000 0.500000
vt 1.000000 1.000000
vt 0.500000 1.000000
vt 0.000000 1.000000
vt 0.000000 0.000000
vn -0.000000 1.000000 0.000000
usemtl 
s off
f 9/1/1 7/2/1 5/3/1
f 9/1/1 1/4/1 8/5/1
f 3/6/1 6/7/1 8/5/1
f 6/7/1 4/8/1 9/1/1
f 7/2/1 2/9/1 5/3/1
f 5/3/1 1/4/1 9/1/1
f 6/7/1 9/1/1 8/5/1
f 4/8/1 7/2/1 9/1/1
